# xmcd
# 
# Track frame offsets:
#     182
#     27212
#     47360
#     71932
#     96400
#     115327
#     134172
#     153640
#     173225
#     193260
# 
# Disc length: 3056
# 
# Revision: 1
# Processed by: cddbd v1.5.2PL0 Copyright (c) Steve Scherf et al.
# Submitted via: fre:ac v1.0.17
# 
DISCID=960bee0a
DTITLE=The O'Jays - Heartbreaker
DYEAR=0
DGENRE=
TTITLE0=Cryin' The Blues
TTITLE1=One Wonderful Girl
TTITLE2=Somebody Else Will
TTITLE3=Show Me The Right Way
TTITLE4=Trouble
TTITLE5=Can't Let You Go
TTITLE6=Decisions
TTITLE7=No Can Do
TTITLE8=Heartbreaker
TTITLE9=He Loves You
EXTD=
EXTT0=
EXTT1=
EXTT2=
EXTT3=
EXTT4=
EXTT5=
EXTT6=
EXTT7=
EXTT8=
EXTT9=
PLAYORDER=
